<mxfile host="app.diagrams.net" modified="2023-11-02T20:50:48.828Z" agent="Mozilla/5.0 (Windows NT 10.0; Win64; x64) AppleWebKit/537.36 (KHTML, like Gecko) Chrome/118.0.0.0 Safari/537.36 Edg/118.0.2088.76" version="22.0.8" etag="1XaES5CRaE4OXpKJklEt" type="github">
  <diagram name="Page-1" id="4M_KNYP07DkD4DnWV5nI">
    <mxGraphModel>
      <root>
        <mxCell id="0" />
        <mxCell id="1" parent="0" />
      </root>
    </mxGraphModel>
  </diagram>
</mxfile>
